<svg width="48" height="48" viewBox="0 0 48 48" fill="none" xmlns="http://www.w3.org/2000/svg">
<rect width="48" height="48" fill="white"/>
<path d="M14.0115 13.3654L2.09407 33.946C1.82017 34.419 2.17716 35 2.74172 35H6.99267C7.2618 35 7.50975 34.8601 7.64032 34.6346L19.5577 14.054C19.8316 13.581 19.4746 13 18.9101 13H14.6591C14.39 13 14.142 13.1399 14.0115 13.3654Z" fill="#333333"/>
<path d="M21.0173 34.2903V13.7097C21.0173 13.3177 21.3489 13 21.758 13H26.2216C26.6307 13 26.9623 13.3177 26.9623 13.7097V34.2903C26.9623 34.6823 26.6307 35 26.2216 35H21.758C21.3489 35 21.0173 34.6823 21.0173 34.2903Z" fill="#333333"/>
<path d="M40.3654 13.3656L28.4606 33.9463C28.187 34.4193 28.544 35 29.1084 35H33.3535C33.6227 35 33.8708 34.86 34.0013 34.6344L45.9061 14.0537C46.1797 13.5807 45.8227 13 45.2583 13H41.0132C40.7439 13 40.4959 13.14 40.3654 13.3656Z" fill="#333333"/>
</svg>
