<svg width="63" height="32" viewBox="0 0 63 32" fill="none" xmlns="http://www.w3.org/2000/svg">
<path d="M17.1982 0.531445L0.134695 30.4669C-0.257484 31.1549 0.253663 32 1.06201 32H7.1486C7.53394 32 7.88895 31.7965 8.07591 31.4686L25.1394 1.53307C25.5316 0.84505 25.0205 0 24.2121 0H18.1255C17.7402 0 17.3852 0.203462 17.1982 0.531445Z" fill="#333333"/>
<path d="M27.2293 30.9677V1.03226C27.2293 0.462158 27.7041 0 28.2898 0H34.681C35.2667 0 35.7415 0.462159 35.7415 1.03226V30.9677C35.7415 31.5378 35.2667 32 34.681 32H28.2898C27.7041 32 27.2293 31.5378 27.2293 30.9677Z" fill="#333333"/>
<path d="M54.9323 0.531849L37.8868 30.4673C37.495 31.1553 38.0062 32 38.8143 32H44.8925C45.278 32 45.6332 31.7964 45.82 31.4682L62.8655 1.53267C63.2573 0.844653 62.7461 0 61.938 0H55.8598C55.4743 0 55.1191 0.203639 54.9323 0.531849Z" fill="#333333"/>
</svg>
